<svg xmlns="http://www.w3.org/2000/svg" xmlns:xlink="http://www.w3.org/1999/xlink" width="18" height="18" viewBox="0 0 18 18">
  <defs>
    <clipPath id="clip-path">
      <rect width="18" height="18" fill="none"/>
    </clipPath>
  </defs>
  <g id="Comment" clip-path="url(#clip-path)">
    <path id="Chat" d="M5.625,9A1.063,1.063,0,0,0,6.75,10.125h4.5A1.127,1.127,0,0,0,12.375,9,1.063,1.063,0,0,0,11.25,7.875H6.75A1.127,1.127,0,0,0,5.625,9ZM0,5.625A5.57,5.57,0,0,1,5.625,0h6.75A5.57,5.57,0,0,1,18,5.625v11.25A1.063,1.063,0,0,1,16.875,18H5.625A5.57,5.57,0,0,1,0,12.375Z" fill="#cbf8cb" fill-rule="evenodd"/>
  </g>
</svg>
