<svg xmlns="http://www.w3.org/2000/svg" width="110.4" height="83.472" viewBox="0 0 110.4 83.472">
  <g id="Group_233" data-name="Group 233" transform="translate(-334.152 -324.349)">
    <g id="Group_231" data-name="Group 231" transform="translate(334.152 324.349)">
      <path id="Path_286" data-name="Path 286" d="M485.224,341.171c4.364-17.288,9.735-18.47-1.753-15.639-13.988,3.446-17.8,22.114-17.8,22.114,2.464,1.154,3.9,1.995,3.9,1.995s-10.181,24.144-30.391,30.843a38.406,38.406,0,0,1-11.115,1.873h-.012a35.81,35.81,0,0,0,8.863-1.7c19.222-6.372,28.905-29.335,28.905-29.335s-21.483-12.633-40.7-6.261c-17.591,5.831-27.193,25.557-28.7,28.863l-.023-.013.022.014h0c-.139.306-.209.471-.209.471a63.2,63.2,0,0,0,9.209,4.194l0,0c10.478,4.734,28.45,10.721,45.15,5.995-4.236,11.1-.691,23.235-.691,23.235s14.132-4.741,20.27-16.489c4.235-8.1,3.559-17.425,2.734-22.429C477.928,362.2,482.2,353.163,485.224,341.171Zm-6.669-8.63a1.9,1.9,0,1,1-1.9,1.9A1.9,1.9,0,0,1,478.555,332.541Z" transform="translate(-379.967 -324.349)" fill="#bfffbf"/>
      <path id="Path_287" data-name="Path 287" d="M711.771,446.615a63.726,63.726,0,0,1-7.543,13.289c.14.849.275,1.825.383,2.9a27.217,27.217,0,0,0,7.192,9.257s5.47-7.637,4.269-15.9A20.939,20.939,0,0,0,711.771,446.615Z" transform="translate(-607.377 -414.617)" fill="#bfffbf"/>
      <path id="Path_288" data-name="Path 288" d="M475.5,569.133a30.579,30.579,0,0,0-7.571,10.959s10.056,3.258,18.512-.85a24.039,24.039,0,0,0,9.206-8.527A62.3,62.3,0,0,1,475.5,569.133Z" transform="translate(-432.922 -505.072)" fill="#bfffbf"/>
      <path id="Path_289" data-name="Path 289" d="M351.714,534.313q-.577.245-1.148.522c-11.462,5.569-16.414,19.016-16.414,19.016s13.632,4.417,25.094-1.152a31.939,31.939,0,0,0,11.866-10.654A98.61,98.61,0,0,1,351.714,534.313Z" transform="translate(-334.152 -479.364)" fill="#bfffbf"/>
    </g>
  </g>
</svg>
