<svg xmlns="http://www.w3.org/2000/svg" xmlns:xlink="http://www.w3.org/1999/xlink" width="18" height="18" viewBox="0 0 18 18">
  <defs>
    <clipPath id="clip-path">
      <rect width="18" height="18" fill="none"/>
    </clipPath>
  </defs>
  <g id="Mobile" clip-path="url(#clip-path)">
    <rect id="Rectangle_975" data-name="Rectangle 975" width="18" height="18" fill="none"/>
    <path id="Path_259" data-name="Path 259" d="M10.8,0a1.125,1.125,0,0,1,.84.338.993.993,0,0,1,.36.787v15.75a.993.993,0,0,1-.36.788A1.125,1.125,0,0,1,10.8,18H1.2a1.125,1.125,0,0,1-.84-.337A.993.993,0,0,1,0,16.875V1.125A.993.993,0,0,1,.36.338,1.125,1.125,0,0,1,1.2,0ZM9.96,13.5V3.038H2.04V13.5Zm-4.8,3.038a1.125,1.125,0,0,0,.84.337,1.125,1.125,0,0,0,.84-.337,1.041,1.041,0,0,0,0-1.575A1.125,1.125,0,0,0,6,14.625a1.125,1.125,0,0,0-.84.337,1.041,1.041,0,0,0,0,1.575Z" transform="translate(3 0)" fill="#cbf8cb"/>
  </g>
</svg>
