<svg xmlns="http://www.w3.org/2000/svg" xmlns:xlink="http://www.w3.org/1999/xlink" width="19" height="17" viewBox="0 0 19 17">
  <defs>
    <clipPath id="clip-path">
      <rect width="19" height="17" fill="none"/>
    </clipPath>
  </defs>
  <g id="Phone" clip-path="url(#clip-path)">
    <rect id="Rectangle_320" data-name="Rectangle 320" width="17" height="17" fill="none"/>
    <path id="Path_110" data-name="Path 110" d="M11.027,12.143l2.036-1.67a.671.671,0,0,1,.509-.152l.339.152,4.75,1.973c.339.152.339.3.339.607a3.687,3.687,0,0,1-1.357,2.732A5.184,5.184,0,0,1,14.08,17a11.327,11.327,0,0,1-4.75-1.062A22.383,22.383,0,0,1,4.58,12.9,25.933,25.933,0,0,1,2.036,9.563a19.983,19.983,0,0,1-1.7-3.339A8.4,8.4,0,0,1,0,3.339,3.826,3.826,0,0,1,1.188,1.063,5.519,5.519,0,0,1,4.411,0a.918.918,0,0,1,.679.3l2.545,4.25a.516.516,0,0,0,.17.3.521.521,0,0,1-.17.455L5.429,7.134a.619.619,0,0,0,0,.759,14.755,14.755,0,0,0,2.036,2.429,16.908,16.908,0,0,0,2.714,1.973C10.518,12.446,10.857,12.446,11.027,12.143Z" fill="#cbf8cb"/>
  </g>
</svg>
