<svg xmlns="http://www.w3.org/2000/svg" xmlns:xlink="http://www.w3.org/1999/xlink" width="26" height="28" viewBox="0 0 26 28">
  <defs>
    <clipPath id="clip-path">
      <rect width="26" height="28" fill="none"/>
    </clipPath>
  </defs>
  <g id="Places_Clear" data-name="Places Clear" clip-path="url(#clip-path)">
    <rect id="Rectangle_305" data-name="Rectangle 305" width="25" height="25" transform="translate(0 0)" fill="none"/>
    <path id="Path_114" data-name="Path 114" d="M11.468,16.57A4.864,4.864,0,0,0,16.34,11.7,5.014,5.014,0,0,0,11.468,6.65a4.864,4.864,0,0,0-4.873,4.873A5.136,5.136,0,0,0,11.468,16.57ZM3.288,3.344A11.567,11.567,0,1,1,19.647,19.7l-8.179,8.179L3.288,19.7A11.883,11.883,0,0,1,3.288,3.344Z" transform="translate(0.975 0.05)" fill="#bfffbf" fill-rule="evenodd"/>
  </g>
</svg>
