<svg xmlns="http://www.w3.org/2000/svg" xmlns:xlink="http://www.w3.org/1999/xlink" width="18" height="18" viewBox="0 0 18 18">
  <defs>
    <clipPath id="clip-path">
      <rect width="18" height="18" fill="none"/>
    </clipPath>
  </defs>
  <g id="Price" clip-path="url(#clip-path)">
    <rect id="Rectangle_554" data-name="Rectangle 554" width="18" height="18" fill="none"/>
    <path id="Path_148" data-name="Path 148" d="M.3,11.4c-.15-.3-.3-.45-.3-.75A1.146,1.146,0,0,1,.3,9.9L10.05.15A.147.147,0,0,1,10.2,0h6.6a1.146,1.146,0,0,1,.75.3,1.069,1.069,0,0,1,.45.9V7.8c0,.15,0,.15-.15.3L8.1,17.85a6.5,6.5,0,0,1-.75.15,1.146,1.146,0,0,1-.75-.3ZM12.9,2.7a1.852,1.852,0,0,0-.6,1.2,1.7,1.7,0,0,0,.45,1.2,1.825,1.825,0,0,0,2.4,0,1.7,1.7,0,0,0,.45-1.2,1.616,1.616,0,0,0-.3-1.2,1.825,1.825,0,0,0-2.4,0Z" fill="#cbf8cb"/>
  </g>
</svg>
