<svg xmlns="http://www.w3.org/2000/svg" xmlns:xlink="http://www.w3.org/1999/xlink" width="18" height="18" viewBox="0 0 18 18">
  <defs>
    <clipPath id="clip-path">
      <rect width="18" height="18" fill="none"/>
    </clipPath>
  </defs>
  <g id="Web" clip-path="url(#clip-path)">
    <path id="Path_4" data-name="Path 4" d="M2.7,2.7A8.17,8.17,0,0,1,9,0a8.17,8.17,0,0,1,6.3,2.7A8.17,8.17,0,0,1,18,9a8.17,8.17,0,0,1-2.7,6.3A8.17,8.17,0,0,1,9,18a8.17,8.17,0,0,1-6.3-2.7A8.982,8.982,0,0,1,0,9,8.17,8.17,0,0,1,2.7,2.7Zm7.5,13.5a3.685,3.685,0,0,0,2.25-1.35A6.552,6.552,0,0,0,13.5,11.7a2.484,2.484,0,0,0-.75-1.8A2.64,2.64,0,0,0,10.8,9H9.3a4.38,4.38,0,0,1-1.35-.3A1.362,1.362,0,0,1,7.5,7.65a.779.779,0,0,1,.3-.6,1.137,1.137,0,0,1,.6-.3,1.024,1.024,0,0,1,.75.45c.3.15.45.3.6.3a.9.9,0,0,0,.6-.15.9.9,0,0,0,.15-.6,2.387,2.387,0,0,0-.75-1.5A6.2,6.2,0,0,0,10.5,2.4a.323.323,0,0,0-.3-.3A4.637,4.637,0,0,0,9,1.8,7.5,7.5,0,0,0,5.1,3,3.776,3.776,0,0,0,3.75,6a3.841,3.841,0,0,0,1.2,2.85,4.1,4.1,0,0,0,2.85,1.2h0v.6a1.926,1.926,0,0,0,.6,1.5,2.184,2.184,0,0,0,1.35.9v2.7c0,.15,0,.15.15.3S10.05,16.2,10.2,16.2Z" fill="#cbf8cb"/>
  </g>
</svg>
